%TF.GenerationSoftware,KiCad,Pcbnew,7.0.2*%
%TF.CreationDate,2023-05-07T14:31:41-07:00*%
%TF.ProjectId,z50-ssd,7a35302d-7373-4642-9e6b-696361645f70,rev?*%
%TF.SameCoordinates,Original*%
%TF.FileFunction,Soldermask,Top*%
%TF.FilePolarity,Negative*%
%FSLAX46Y46*%
G04 Gerber Fmt 4.6, Leading zero omitted, Abs format (unit mm)*
G04 Created by KiCad (PCBNEW 7.0.2) date 2023-05-07 14:31:41*
%MOMM*%
%LPD*%
G01*
G04 APERTURE LIST*
G04 Aperture macros list*
%AMRoundRect*
0 Rectangle with rounded corners*
0 $1 Rounding radius*
0 $2 $3 $4 $5 $6 $7 $8 $9 X,Y pos of 4 corners*
0 Add a 4 corners polygon primitive as box body*
4,1,4,$2,$3,$4,$5,$6,$7,$8,$9,$2,$3,0*
0 Add four circle primitives for the rounded corners*
1,1,$1+$1,$2,$3*
1,1,$1+$1,$4,$5*
1,1,$1+$1,$6,$7*
1,1,$1+$1,$8,$9*
0 Add four rect primitives between the rounded corners*
20,1,$1+$1,$2,$3,$4,$5,0*
20,1,$1+$1,$4,$5,$6,$7,0*
20,1,$1+$1,$6,$7,$8,$9,0*
20,1,$1+$1,$8,$9,$2,$3,0*%
G04 Aperture macros list end*
%ADD10C,1.600000*%
%ADD11O,1.600000X1.600000*%
%ADD12R,1.700000X1.700000*%
%ADD13O,1.700000X1.700000*%
%ADD14C,3.600000*%
%ADD15C,5.600000*%
%ADD16R,1.800000X1.800000*%
%ADD17C,1.800000*%
%ADD18C,4.400000*%
%ADD19R,1.600000X1.600000*%
%ADD20C,2.000000*%
%ADD21RoundRect,0.250000X-0.600000X0.600000X-0.600000X-0.600000X0.600000X-0.600000X0.600000X0.600000X0*%
%ADD22C,1.700000*%
G04 APERTURE END LIST*
D10*
%TO.C,R1*%
X50165000Y-73025000D03*
D11*
X50165000Y-65405000D03*
%TD*%
D10*
%TO.C,R2*%
X116840000Y-78105000D03*
D11*
X109220000Y-78105000D03*
%TD*%
D12*
%TO.C,J4*%
X36830000Y-96520000D03*
D13*
X36830000Y-99060000D03*
X36830000Y-101600000D03*
X36830000Y-104140000D03*
X36830000Y-106680000D03*
X36830000Y-109220000D03*
X36830000Y-111760000D03*
X36830000Y-114300000D03*
%TD*%
D10*
%TO.C,R3*%
X116840000Y-71120000D03*
D11*
X109220000Y-71120000D03*
%TD*%
D10*
%TO.C,C1*%
X55880000Y-112395000D03*
X55880000Y-107395000D03*
%TD*%
D14*
%TO.C,H1*%
X115570000Y-57695000D03*
D15*
X115570000Y-57695000D03*
%TD*%
D16*
%TO.C,D2*%
X123190000Y-71120000D03*
D17*
X123190000Y-68580000D03*
%TD*%
D12*
%TO.C,J2*%
X104775000Y-83820000D03*
D13*
X104775000Y-86360000D03*
X104775000Y-88900000D03*
X104775000Y-91440000D03*
X104775000Y-93980000D03*
X104775000Y-96520000D03*
X104775000Y-99060000D03*
X104775000Y-101600000D03*
X104775000Y-104140000D03*
%TD*%
D18*
%TO.C,H2*%
X123698000Y-83820000D03*
%TD*%
D10*
%TO.C,C2*%
X67310000Y-103505000D03*
X72310000Y-103505000D03*
%TD*%
D19*
%TO.C,U3*%
X81910000Y-107325000D03*
D11*
X79370000Y-107325000D03*
X76830000Y-107325000D03*
X74290000Y-107325000D03*
X71750000Y-107325000D03*
X69210000Y-107325000D03*
X66670000Y-107325000D03*
X64130000Y-107325000D03*
X61590000Y-107325000D03*
X59050000Y-107325000D03*
X59050000Y-114945000D03*
X61590000Y-114945000D03*
X64130000Y-114945000D03*
X66670000Y-114945000D03*
X69210000Y-114945000D03*
X71750000Y-114945000D03*
X74290000Y-114945000D03*
X76830000Y-114945000D03*
X79370000Y-114945000D03*
X81910000Y-114945000D03*
%TD*%
D12*
%TO.C,J1*%
X50165000Y-61595000D03*
D13*
X52705000Y-61595000D03*
X55245000Y-61595000D03*
X57785000Y-61595000D03*
X60325000Y-61595000D03*
X62865000Y-61595000D03*
%TD*%
D20*
%TO.C,SW1*%
X34215000Y-52995000D03*
X40715000Y-52995000D03*
X34215000Y-57495000D03*
X40715000Y-57495000D03*
%TD*%
D21*
%TO.C,U1*%
X108690000Y-118805000D03*
D22*
X108690000Y-121345000D03*
X106150000Y-118805000D03*
X106150000Y-121345000D03*
X103610000Y-118805000D03*
X103610000Y-121345000D03*
X101070000Y-118805000D03*
X101070000Y-121345000D03*
X98530000Y-118805000D03*
X98530000Y-121345000D03*
X95990000Y-118805000D03*
X95990000Y-121345000D03*
X93450000Y-118805000D03*
X93450000Y-121345000D03*
X90910000Y-118805000D03*
X90910000Y-121345000D03*
X88370000Y-118805000D03*
X88370000Y-121345000D03*
X85830000Y-118805000D03*
X85830000Y-121345000D03*
X83290000Y-118805000D03*
X83290000Y-121345000D03*
X80750000Y-118805000D03*
X80750000Y-121345000D03*
X78210000Y-118805000D03*
X78210000Y-121345000D03*
X75670000Y-118805000D03*
X75670000Y-121345000D03*
X73130000Y-118805000D03*
X73130000Y-121345000D03*
X70590000Y-118805000D03*
X70590000Y-121345000D03*
X68050000Y-118805000D03*
X68050000Y-121345000D03*
X65510000Y-118805000D03*
X65510000Y-121345000D03*
X62970000Y-118805000D03*
X62970000Y-121345000D03*
X60430000Y-118805000D03*
X60430000Y-121345000D03*
X57890000Y-118805000D03*
X57890000Y-121345000D03*
X55350000Y-118805000D03*
X55350000Y-121345000D03*
X52810000Y-118805000D03*
X52810000Y-121345000D03*
X50270000Y-118805000D03*
X50270000Y-121345000D03*
X47730000Y-118805000D03*
X47730000Y-121345000D03*
%TD*%
D19*
%TO.C,C7*%
X86400000Y-113284000D03*
D10*
X88900000Y-113284000D03*
%TD*%
D19*
%TO.C,U2*%
X41910000Y-99695000D03*
D11*
X44450000Y-99695000D03*
X46990000Y-99695000D03*
X49530000Y-99695000D03*
X52070000Y-99695000D03*
X54610000Y-99695000D03*
X57150000Y-99695000D03*
X59690000Y-99695000D03*
X62230000Y-99695000D03*
X64770000Y-99695000D03*
X67310000Y-99695000D03*
X69850000Y-99695000D03*
X72390000Y-99695000D03*
X74930000Y-99695000D03*
X77470000Y-99695000D03*
X80010000Y-99695000D03*
X82550000Y-99695000D03*
X85090000Y-99695000D03*
X87630000Y-99695000D03*
X90170000Y-99695000D03*
X90170000Y-84455000D03*
X87630000Y-84455000D03*
X85090000Y-84455000D03*
X82550000Y-84455000D03*
X80010000Y-84455000D03*
X77470000Y-84455000D03*
X74930000Y-84455000D03*
X72390000Y-84455000D03*
X69850000Y-84455000D03*
X67310000Y-84455000D03*
X64770000Y-84455000D03*
X62230000Y-84455000D03*
X59690000Y-84455000D03*
X57150000Y-84455000D03*
X54610000Y-84455000D03*
X52070000Y-84455000D03*
X49530000Y-84455000D03*
X46990000Y-84455000D03*
X44450000Y-84455000D03*
X41910000Y-84455000D03*
%TD*%
D10*
%TO.C,C6*%
X41315000Y-103505000D03*
X46315000Y-103505000D03*
%TD*%
D12*
%TO.C,JP1*%
X52705000Y-114940000D03*
D13*
X52705000Y-112400000D03*
%TD*%
D16*
%TO.C,D1*%
X123190000Y-78110000D03*
D17*
X123190000Y-75570000D03*
%TD*%
D10*
%TO.C,C4*%
X100330000Y-86320000D03*
X100330000Y-81320000D03*
%TD*%
D18*
%TO.C,H3*%
X123698000Y-104140000D03*
%TD*%
D10*
%TO.C,C3*%
X62270000Y-80645000D03*
X67270000Y-80645000D03*
%TD*%
D12*
%TO.C,J3*%
X72898000Y-61468000D03*
D13*
X75438000Y-61468000D03*
X77978000Y-61468000D03*
X80518000Y-61468000D03*
X83058000Y-61468000D03*
X85598000Y-61468000D03*
%TD*%
D10*
%TO.C,C5*%
X52785000Y-65405000D03*
X57785000Y-65405000D03*
%TD*%
M02*
