M48
; DRILL file {KiCad 7.0.2} date Sun May  7 14:31:38 2023
; FORMAT={-:-/ absolute / inch / decimal}
; #@! TF.CreationDate,2023-05-07T14:31:38-07:00
; #@! TF.GenerationSoftware,Kicad,Pcbnew,7.0.2
; #@! TF.FileFunction,Plated,1,2,PTH
FMAT,2
INCH
; #@! TA.AperFunction,Plated,PTH,ViaDrill
T1C0.0157
; #@! TA.AperFunction,Plated,PTH,ComponentDrill
T2C0.0315
; #@! TA.AperFunction,Plated,PTH,ComponentDrill
T3C0.0354
; #@! TA.AperFunction,Plated,PTH,ComponentDrill
T4C0.0394
; #@! TA.AperFunction,Plated,PTH,ComponentDrill
T5C0.0433
; #@! TA.AperFunction,Plated,PTH,ComponentDrill
T6C0.0866
; #@! TA.AperFunction,Plated,PTH,ComponentDrill
T7C0.1260
%
G90
G05
T1
X1.4Y-3.56
X1.54Y-3.4
X1.64Y-4.6
X1.72Y-3.5
X1.78Y-4.48
X1.84Y-3.66
X1.8726Y-4.0321
X1.88Y-4.44
X1.9109Y-4.1266
X1.9356Y-4.4269
X1.96Y-3.5
X1.96Y-3.82
X2.08Y-3.66
X2.08Y-4.12
X2.22Y-3.44
X2.2269Y-4.3638
X2.2643Y-4.3339
X2.638Y-3.7269
X2.6483Y-3.7754
X2.66Y-3.58
X2.84Y-3.58
X2.9Y-3.08
X2.94Y-3.58
X3.02Y-4.3609
X3.1Y-3.24
X3.1Y-3.42
X3.14Y-3.82
X3.22Y-2.56
X3.28Y-3.58
X3.3Y-4.12
X3.3976Y-3.7757
X3.5Y-3.54
X3.5Y-4.12
X3.583Y-4.2271
X3.583Y-4.2665
X3.66Y-3.96
X3.94Y-3.54
X3.98Y-3.96
T2
X1.6266Y-4.075
X1.65Y-3.325
X1.65Y-3.925
X1.75Y-3.325
X1.75Y-3.925
X1.8234Y-4.075
X1.85Y-3.325
X1.85Y-3.925
X1.95Y-3.325
X1.95Y-3.925
X1.975Y-2.575
X1.975Y-2.875
X2.05Y-3.325
X2.05Y-3.925
X2.0781Y-2.575
X2.15Y-3.325
X2.15Y-3.925
X2.2Y-4.2281
X2.2Y-4.425
X2.25Y-3.325
X2.25Y-3.925
X2.275Y-2.575
X2.3248Y-4.2254
X2.3248Y-4.5254
X2.35Y-3.325
X2.35Y-3.925
X2.4248Y-4.2254
X2.4248Y-4.5254
X2.45Y-3.325
X2.45Y-3.925
X2.4516Y-3.175
X2.5248Y-4.2254
X2.5248Y-4.5254
X2.55Y-3.325
X2.55Y-3.925
X2.6248Y-4.2254
X2.6248Y-4.5254
X2.6484Y-3.175
X2.65Y-3.325
X2.65Y-3.925
X2.65Y-4.075
X2.7248Y-4.2254
X2.7248Y-4.5254
X2.75Y-3.325
X2.75Y-3.925
X2.8248Y-4.2254
X2.8248Y-4.5254
X2.8469Y-4.075
X2.85Y-3.325
X2.85Y-3.925
X2.9248Y-4.2254
X2.9248Y-4.5254
X2.95Y-3.325
X2.95Y-3.925
X3.0248Y-4.2254
X3.0248Y-4.5254
X3.05Y-3.325
X3.05Y-3.925
X3.1248Y-4.2254
X3.1248Y-4.5254
X3.15Y-3.325
X3.15Y-3.925
X3.2248Y-4.2254
X3.2248Y-4.5254
X3.25Y-3.325
X3.25Y-3.925
X3.35Y-3.325
X3.35Y-3.925
X3.4016Y-4.46
X3.45Y-3.325
X3.45Y-3.925
X3.5Y-4.46
X3.55Y-3.325
X3.55Y-3.925
X3.95Y-3.2016
X3.95Y-3.3984
X4.3Y-2.8
X4.3Y-3.075
X4.6Y-2.8
X4.6Y-3.075
T3
X4.85Y-2.7
X4.85Y-2.8
X4.85Y-2.9752
X4.85Y-3.0752
T4
X1.45Y-3.8
X1.45Y-3.9
X1.45Y-4.0
X1.45Y-4.1
X1.45Y-4.2
X1.45Y-4.3
X1.45Y-4.4
X1.45Y-4.5
X1.8791Y-4.6774
X1.8791Y-4.7774
X1.975Y-2.425
X1.9791Y-4.6774
X1.9791Y-4.7774
X2.075Y-2.425
X2.075Y-4.4252
X2.075Y-4.5252
X2.0791Y-4.6774
X2.0791Y-4.7774
X2.175Y-2.425
X2.1791Y-4.6774
X2.1791Y-4.7774
X2.275Y-2.425
X2.2791Y-4.6774
X2.2791Y-4.7774
X2.375Y-2.425
X2.3791Y-4.6774
X2.3791Y-4.7774
X2.475Y-2.425
X2.4791Y-4.6774
X2.4791Y-4.7774
X2.5791Y-4.6774
X2.5791Y-4.7774
X2.6791Y-4.6774
X2.6791Y-4.7774
X2.7791Y-4.6774
X2.7791Y-4.7774
X2.87Y-2.42
X2.8791Y-4.6774
X2.8791Y-4.7774
X2.97Y-2.42
X2.9791Y-4.6774
X2.9791Y-4.7774
X3.07Y-2.42
X3.0791Y-4.6774
X3.0791Y-4.7774
X3.17Y-2.42
X3.1791Y-4.6774
X3.1791Y-4.7774
X3.27Y-2.42
X3.2791Y-4.6774
X3.2791Y-4.7774
X3.37Y-2.42
X3.3791Y-4.6774
X3.3791Y-4.7774
X3.4791Y-4.6774
X3.4791Y-4.7774
X3.5791Y-4.6774
X3.5791Y-4.7774
X3.6791Y-4.6774
X3.6791Y-4.7774
X3.7791Y-4.6774
X3.7791Y-4.7774
X3.8791Y-4.6774
X3.8791Y-4.7774
X3.9791Y-4.6774
X3.9791Y-4.7774
X4.0791Y-4.6774
X4.0791Y-4.7774
X4.125Y-3.3
X4.125Y-3.4
X4.125Y-3.5
X4.125Y-3.6
X4.125Y-3.7
X4.125Y-3.8
X4.125Y-3.9
X4.125Y-4.0
X4.125Y-4.1
X4.1791Y-4.6774
X4.1791Y-4.7774
X4.2791Y-4.6774
X4.2791Y-4.7774
T5
X1.347Y-2.0864
X1.347Y-2.2636
X1.603Y-2.0864
X1.603Y-2.2636
T6
X4.87Y-3.3
X4.87Y-4.1
T7
X4.55Y-2.2715
T0
M30
